# xmcd
#
# Track frame offsets:
#	150
#	12347
#	23417
#	35987
#	47732
#	59627
#	70922
#	82592
#	92762
#	103682
#	114002
#	125897
#	138392
#	149912
#	162332
#	174302
#	187097
#	196517
#	209012
#	218582
#	230852
#	241847
#	252992
#	264287
#	274307
#
# Disc length: 3760 seconds
#
# Revision: 0
# Processed by: cddbd v1.5.2PL0 Copyright (c) Steve Scherf et al.
# Submitted via: EZCDAudioConverter 2.1.2.1
#
DISCID=710eae19
DTITLE=Various artits - Country and Western [CD 20) History of 1955 Part 4
DYEAR=1900
DGENRE=
TTITLE0=Jim Reeves - Drinking Tequila
TTITLE1=Porter Wagoner - Eat, Drink and Be Merry (Tom.. You'' Cry)
TTITLE2=Roy Acuff - Wabash Cannonball
TTITLE3=Hank Snow - The Next Voice You Hear
TTITLE4=Marty Robbins - That's All Right
TTITLE5=Ernest Tubb - The Yellow Rose Of Texas
TTITLE6=Bonnie Lou - Train Whistle Blues
TTITLE7=Johnny Cash - Hey Porter
TTITLE8=Faron Young - All Right
TTITLE9=George Jones - Why Baby Why
TTITLE10=Merle Travis - Beer Barrel Polka
TTITLE11=Kitty Wells - Makin' Believe
TTITLE12=Marty Robbins - Long Gone Lonesome Blues
TTITLE13=Hank Snow - Yellow Roses
TTITLE14=Don Gibson - I Must Forget You
TTITLE15=Webb Pierce - Love, Love, Love
TTITLE16=Rusty and Doug Kershaw - Look Around (Take A Look At Me)
TTITLE17=Porter Wagoner - A Satisfied Mind
TTITLE18=Marvin Rainwater - Tea Bag Romeo
TTITLE19=Eddy Arnold - The Cattle Call
TTITLE20=Jim Reeves - I'm Hurtin' Inside
TTITLE21=Hank Thompson - This Train
TTITLE22=Marty Robbins - Maybelline
TTITLE23=Hank Snow - Would You Mind
TTITLE24=Fess Parker - The Ballad Of Davy Crockett
EXTD=
EXTT0=
EXTT1=
EXTT2=
EXTT3=
EXTT4=
EXTT5=
EXTT6=
EXTT7=
EXTT8=
EXTT9=
EXTT10=
EXTT11=
EXTT12=
EXTT13=
EXTT14=
EXTT15=
EXTT16=
EXTT17=
EXTT18=
EXTT19=
EXTT20=
EXTT21=
EXTT22=
EXTT23=
EXTT24=
PLAYORDER=
